<svg version="1.2" xmlns="http://www.w3.org/2000/svg" viewBox="-65 0 145 145">
    <title>ticatapp</title>
    <style>
        .s0 {
            color: #06b6d4;
            fill: currentColor;

        }

        .s1 {
            color: #db2777;
            fill: currentColor;
        }

        .xx {
            transform: rotate(45deg);
        }


        @media (prefers-color-scheme: dark) {

            .s0,
            .s1 {
                /* color: #f2f2f2; */
                fill: currentColor;
            }
        }
    </style>
    <g id="g10" class="xx">
        <g id="g12">
            <path id="path1070" fill="currentColor" class="s0"
                d="m37.4 52.7c0 0-5.9-6.3-10-14.5c-3.1-6.2-1.4-13.8 4.1-18.1c9.9-7.8 27.9-19.6 45.4-19.3c0 0-23.2 4.8-39.9 22.7c0 0 30.8-25.5 49.9-18.3c19.1 7.2 9.2 41.7 9.2 41.7c0 0 5.3-32.1-17.3-25.2c0 0 25.8 36.9 19.6 55c0 0 2-13.9-16.1-39.9c0 0 25.3 41.5 8.3 58.5c-9.9 9.8-30-2-30-2c0 0 16 5.7 19.9-1.2c3.7-6.3-0.4-25.6-20.5-49.9c-2.9-3.7-8.3-4.1-11.8-0.9c-3.3 2.9-7.3 6.9-10.8 11.4z" />
            <path id="path1072" fill="currentColor" class="s1"
                d="m62.8 50.6c0 0 5.8 6.4 9.9 14.5c3.2 6.3 1.4 13.8-4.1 18.1c-9.9 7.8-27.8 19.6-45.3 19.4c0 0 23.2-4.9 39.9-22.8c0 0-30.9 25.5-50 18.3c-19.1-7.2-9.2-41.7-9.2-41.7c0 0-5.3 32.1 17.3 25.2c0 0-25.7-36.9-19.6-55c0 0-2 14 16.1 39.9c0 0-25.3-41.5-8.3-58.4c10-9.9 30.1 1.9 30.1 1.9c0 0-16.1-5.6-20 1.2c-3.7 6.3 0.4 25.6 20.5 50c3 3.6 8.4 4 11.8 0.9c3.3-3 7.3-7 10.9-11.5z" />
        </g>
    </g>
</svg>